<?xml version="1.0" standalone="no"?><!DOCTYPE svg PUBLIC "-//W3C//DTD SVG 1.1//EN" "http://www.w3.org/Graphics/SVG/1.1/DTD/svg11.dtd"><svg t="1751450162928" class="icon" viewBox="0 0 1024 1024" version="1.1" xmlns="http://www.w3.org/2000/svg" p-id="87159" xmlns:xlink="http://www.w3.org/1999/xlink" width="200" height="200"><path d="M161.645714 864.548571a77.531429 77.531429 0 0 1-65.828571-27.794285C67.291429 799.451429 85.577143 738.742857 146.285714 658.285714a46.08 46.08 0 0 0 8.045715-39.497143A382.537143 382.537143 0 0 1 146.285714 453.485714a375.954286 375.954286 0 0 1 327.68-313.782857 370.102857 370.102857 0 0 1 239.177143 55.588572 48.274286 48.274286 0 0 0 42.422857 4.388571c90.697143-34.377143 149.942857-33.645714 177.005715 0s6.582857 110.445714-73.142858 206.994286A1574.765714 1574.765714 0 0 1 607.085714 641.462857a1609.142857 1609.142857 0 0 1-280.868571 174.08 410.331429 410.331429 0 0 1-164.571429 49.005714zM512 196.022857h-34.377143a315.977143 315.977143 0 0 0-274.285714 266.24 311.588571 311.588571 0 0 0 9.508571 137.508572 105.325714 105.325714 0 0 1-17.554285 91.428571c-57.051429 73.142857-56.32 106.057143-53.394286 110.445714s45.348571 14.628571 159.451428-38.765714a1536 1536 0 0 0 269.897143-168.228571 1526.491429 1526.491429 0 0 0 242.102857-223.085715c73.142857-91.428571 76.8-129.462857 73.142858-134.582857s-29.988571-13.165714-108.982858 16.822857a104.594286 104.594286 0 0 1-94.354285-8.777143A313.051429 313.051429 0 0 0 512 196.022857z" p-id="87160" fill="#8a8a8a"></path><path d="M512 883.565714a365.714286 365.714286 0 0 1-219.428571-73.142857l-40.96-29.257143 45.348571-21.211428a1536 1536 0 0 0 269.897143-168.228572 1526.491429 1526.491429 0 0 0 242.102857-223.085714l32.182857-38.765714 17.554286 46.811428A372.297143 372.297143 0 0 1 512 883.565714z m-137.508571-91.428571A314.514286 314.514286 0 0 0 828.708571 512a280.868571 280.868571 0 0 0-6.582857-60.708571 1721.051429 1721.051429 0 0 1-215.04 190.171428 1776.64 1776.64 0 0 1-232.594285 150.674286z" p-id="87161" fill="#8a8a8a"></path><path d="M373.028571 443.245714m-57.051428 0a57.051429 57.051429 0 1 0 114.102857 0 57.051429 57.051429 0 1 0-114.102857 0Z" p-id="87162" fill="#8a8a8a"></path><path d="M563.931429 329.142857m-57.051429 0a57.051429 57.051429 0 1 0 114.102857 0 57.051429 57.051429 0 1 0-114.102857 0Z" p-id="87163" fill="#8a8a8a"></path></svg>