<?xml version="1.0" standalone="no"?><!DOCTYPE svg PUBLIC "-//W3C//DTD SVG 1.1//EN" "http://www.w3.org/Graphics/SVG/1.1/DTD/svg11.dtd"><svg t="1751448906873" class="icon" viewBox="0 0 1024 1024" version="1.1" xmlns="http://www.w3.org/2000/svg" p-id="14988" xmlns:xlink="http://www.w3.org/1999/xlink" width="200" height="200"><path d="M844.2368 252.7232l-222.3104-140.544a203.6224 203.6224 0 0 0-216.576 0L183.04 252.7232a201.5744 201.5744 0 0 0-94.3616 171.264v332.1344a180.224 180.224 0 0 0 180.0192 180.0192h489.8816a180.224 180.224 0 0 0 180.0192-180.0192V423.9872a201.5744 201.5744 0 0 0-94.3616-171.264zM677.3248 614.4c-56.6272 39.1168-113.0496 53.1456-163.584 53.1456-73.3184 0-134.2464-29.4912-165.7856-54.6304a35.84 35.84 0 0 1 44.5952-56.32c5.12 3.84 115.2512 87.6032 244.0704-1.3312a35.84 35.84 0 0 1 40.704 59.136z" fill="#165DFF" p-id="14989"></path></svg>