<?xml version="1.0" standalone="no"?><!DOCTYPE svg PUBLIC "-//W3C//DTD SVG 1.1//EN" "http://www.w3.org/Graphics/SVG/1.1/DTD/svg11.dtd"><svg t="1743103470126" class="icon" viewBox="0 0 1024 1024" version="1.1" xmlns="http://www.w3.org/2000/svg" p-id="14542" xmlns:xlink="http://www.w3.org/1999/xlink" width="200" height="200"><path d="M515.988101 808.504889a21.541926 21.541926 0 0 0-21.352297 21.731555v157.620149a21.541926 21.541926 0 0 0 21.428149 21.693629 21.617778 21.617778 0 0 0 21.428148-21.693629v-157.620149a21.655704 21.655704 0 0 0-21.504-21.731555zM438.770916 803.00563a21.31437 21.31437 0 0 0-21.124741 21.466074v106.002963a21.276444 21.276444 0 0 0 21.124741 21.428148 21.238519 21.238519 0 0 0 21.086814-21.466074v-105.965037a21.276444 21.276444 0 0 0-21.086814-21.466074zM761.520545 432.507259C765.995804 141.046519 528.427804 8.988444 512.498916 0.417185V0L512.043804 0.18963 511.626619 0v0.417185c-15.966815 8.571259-253.572741 140.629333-249.059555 432.090074-48.355556 31.55437-99.062519 87.646815-90.984297 184.69926 8.040296 96.976593 101.338074 161.298963 137.064297 157.809777 35.726222-3.489185 25.334519-30.416593 25.334518-30.416592l12.250074-50.251852s52.641185 80.820148 69.518223 80.782222c15.17037-1.251556 87.305481-0.113778 95.914666 0h0.834371c8.647111-0.113778 80.744296-1.251556 95.914666 0 16.839111 0 69.518222-80.782222 69.518222-80.782222l12.212149 50.251852s-10.353778 26.927407 25.372444 30.416592c35.726222 3.489185 128.986074-60.833185 137.064296-157.809777 8.00237-97.014519-42.666667-153.144889-91.060148-184.69926zM512.043804 428.22163c-6.788741-0.113778-95.080296-3.375407-103.23437-107.557926C411.767656 221.639111 505.10336 212.878222 512.043804 212.385185c6.97837 0.493037 100.276148 9.253926 103.234371 108.278519-8.154074 104.182519-96.483556 107.444148-103.234371 107.557926zM587.706027 808.542815a21.238519 21.238519 0 0 0-21.086815 21.352296v75.624296a21.31437 21.31437 0 0 0 21.086815 21.428149 21.238519 21.238519 0 0 0 21.12474-21.428149v-75.624296a21.238519 21.238519 0 0 0-21.12474-21.352296z" fill="#f1586e" p-id="14543"></path></svg>