<?xml version="1.0" standalone="no"?><!DOCTYPE svg PUBLIC "-//W3C//DTD SVG 1.1//EN" "http://www.w3.org/Graphics/SVG/1.1/DTD/svg11.dtd"><svg t="1751449383680" class="icon" viewBox="0 0 1024 1024" version="1.1" xmlns="http://www.w3.org/2000/svg" p-id="15912" xmlns:xlink="http://www.w3.org/1999/xlink" width="200" height="200"><path d="M823.1424 90.624h-310.784a419.2768 419.2768 0 0 0-296.4992 716.288 417.3824 417.3824 0 0 0 286.3616 123.1872h10.24a419.84 419.84 0 0 0 419.84-419.84V199.68a109.1072 109.1072 0 0 0-109.1584-109.056z m-310.784 597.9648a188.8768 188.8768 0 0 1-188.672-188.672 35.84 35.84 0 0 1 71.68 0 116.992 116.992 0 0 0 233.984 0 35.84 35.84 0 1 1 71.68 0 188.928 188.928 0 0 1-188.672 188.672z" fill="#165DFF" p-id="15913"></path></svg>