<?xml version="1.0" standalone="no"?><!DOCTYPE svg PUBLIC "-//W3C//DTD SVG 1.1//EN" "http://www.w3.org/Graphics/SVG/1.1/DTD/svg11.dtd"><svg t="1731698190552" class="icon" viewBox="0 0 1024 1024" version="1.1" xmlns="http://www.w3.org/2000/svg" p-id="76762" xmlns:xlink="http://www.w3.org/1999/xlink" width="48" height="48"><path d="M511.488511 512.511489m-511.488511 0a511.488511 511.488511 0 1 0 1022.977023 0 511.488511 511.488511 0 1 0-1022.977023 0Z" fill="#ff962d" p-id="76763" data-spm-anchor-id="a313x.search_index.0.i198.5a643a81eAoxOw" class=""></path><path d="M511.488511 198.457542c-174.417582 0-313.542458 139.636364-313.542457 313.542458S337.582418 825.542458 511.488511 825.542458s313.542458-139.636364 313.542458-313.542458-139.124875-313.542458-313.542458-313.542458z m181.066934 373.386614H483.356643c-20.971029 0-34.781219-17.390609-34.781218-34.781219V327.352647c0-20.971029 17.390609-34.781219 34.781218-34.781218 20.971029 0 34.781219 17.390609 34.781219 34.781218v174.417583h174.417583c20.971029 0 34.781219 17.390609 34.781218 34.781219s-17.390609 35.292707-34.781218 35.292707z" fill="#FFFFFF" p-id="76764" data-spm-anchor-id="a313x.search_index.0.i199.5a643a81eAoxOw" class=""></path></svg>